<?xml version="1.0" encoding="utf-8"?>
<svg xmlns="http://www.w3.org/2000/svg" viewBox="0 0 50 50" width="500" height="500">
  <path d="M21 2C19.354545 2 18 3.3545455 18 5L18 7L10 7L8 7 A 1.0001 1.0001 0 1 0 8 9L9 9L9 45C9 46.654 10.346 48 12 48L31.074219 48C30.523219 47.386 30.033187 46.718 29.617188 46L12 46C11.448 46 11 45.551 11 45L11 9L18.832031 9 A 1.0001 1.0001 0 0 0 19.158203 9L30.832031 9 A 1.0001 1.0001 0 0 0 31.158203 9L39 9L39 28.050781C39.331 28.023781 39.662 28 40 28C40.338 28 40.669 28.023781 41 28.050781L41 9L42 9 A 1.0001 1.0001 0 1 0 42 7L40 7L32 7L32 5C32 3.3545455 30.645455 2 29 2L21 2 z M 21 4L29 4C29.554545 4 30 4.4454545 30 5L30 7L20 7L20 5C20 4.4454545 20.445455 4 21 4 z M 18.984375 13.986328 A 1.0001 1.0001 0 0 0 18 15L18 40 A 1.0001 1.0001 0 1 0 20 40L20 15 A 1.0001 1.0001 0 0 0 18.984375 13.986328 z M 24.984375 13.986328 A 1.0001 1.0001 0 0 0 24 15L24 40 A 1.0001 1.0001 0 1 0 26 40L26 15 A 1.0001 1.0001 0 0 0 24.984375 13.986328 z M 31 14C30.447 14 30 14.448 30 15L30 33.371094C30.565 32.520094 31.242 31.753219 32 31.074219L32 15C32 14.448 31.553 14 31 14 z M 40 30C34.5 30 30 34.5 30 40C30 45.5 34.5 50 40 50C45.5 50 50 45.5 50 40C50 34.5 45.5 30 40 30 z M 40 32C44.4 32 48 35.6 48 40C48 44.4 44.4 48 40 48C35.6 48 32 44.4 32 40C32 35.6 35.6 32 40 32 z M 36.5 35.5C36.25 35.5 36.000781 35.600781 35.800781 35.800781C35.400781 36.200781 35.400781 36.799219 35.800781 37.199219L38.599609 40L35.800781 42.800781C35.400781 43.200781 35.400781 43.799219 35.800781 44.199219C36.200781 44.599219 36.799219 44.599219 37.199219 44.199219L40 41.400391L42.800781 44.199219C43.200781 44.599219 43.799219 44.599219 44.199219 44.199219C44.399219 43.999219 44.5 43.7 44.5 43.5C44.5 43.3 44.399219 43.000781 44.199219 42.800781L41.400391 40L44.199219 37.199219C44.399219 36.999219 44.5 36.7 44.5 36.5C44.5 36.3 44.399219 36.000781 44.199219 35.800781C43.799219 35.400781 43.200781 35.400781 42.800781 35.800781L40 38.599609L37.199219 35.800781C36.999219 35.600781 36.75 35.5 36.5 35.5 z" />
</svg>