<?xml version="1.0" encoding="UTF-8"?>
<svg xmlns="http://www.w3.org/2000/svg" xmlns:xlink="http://www.w3.org/1999/xlink" width="32px" height="32px" viewBox="0 0 32 32" version="1.1">
<g id="surface1">
<path style=" stroke:none;fill-rule:nonzero;fill:rgb(18.039216%,18.039216%,18.039216%);fill-opacity:1;" d="M 20.371094 23.320312 L 11.730469 23.320312 C 11.375 23.320312 11.089844 23.03125 11.089844 22.679688 L 11.089844 9.320312 C 11.089844 8.96875 11.375 8.679688 11.730469 8.679688 L 20.371094 8.679688 C 20.722656 8.679688 21.011719 8.96875 21.011719 9.320312 L 21.011719 13.898438 C 21.011719 14.253906 20.722656 14.539062 20.371094 14.539062 C 20.015625 14.539062 19.730469 14.253906 19.730469 13.898438 L 19.730469 9.960938 L 12.371094 9.960938 L 12.371094 22.039062 L 19.730469 22.039062 L 19.730469 17.851562 C 19.730469 17.5 20.015625 17.210938 20.371094 17.210938 C 20.722656 17.210938 21.011719 17.5 21.011719 17.851562 L 21.011719 22.679688 C 21.011719 23.03125 20.722656 23.320312 20.371094 23.320312 Z M 20.371094 23.320312 "/>
<path style=" stroke:none;fill-rule:nonzero;fill:rgb(18.039216%,18.039216%,18.039216%);fill-opacity:1;" d="M 25.0625 16.640625 L 16.867188 16.640625 C 16.515625 16.640625 16.226562 16.351562 16.226562 16 C 16.226562 15.648438 16.515625 15.359375 16.867188 15.359375 L 25.0625 15.359375 C 25.414062 15.359375 25.703125 15.648438 25.703125 16 C 25.703125 16.351562 25.417969 16.640625 25.0625 16.640625 Z M 25.0625 16.640625 "/>
<path style=" stroke:none;fill-rule:nonzero;fill:rgb(18.039216%,18.039216%,18.039216%);fill-opacity:1;" d="M 23.640625 18.753906 C 23.476562 18.753906 23.3125 18.691406 23.1875 18.566406 C 22.9375 18.316406 22.9375 17.910156 23.1875 17.660156 L 24.945312 15.902344 L 23.1875 14.140625 C 22.9375 13.890625 22.9375 13.488281 23.1875 13.238281 C 23.4375 12.988281 23.839844 12.988281 24.089844 13.238281 L 26.304688 15.449219 C 26.554688 15.699219 26.554688 16.105469 26.304688 16.355469 L 24.09375 18.566406 C 23.96875 18.691406 23.804688 18.753906 23.640625 18.753906 Z M 23.640625 18.753906 "/>
</g>
</svg>
