<?xml version="1.0" encoding="utf-8"?>
<svg xmlns="http://www.w3.org/2000/svg" viewBox="0 0 40 40" width="80" height="80">
  <path fill="#fff" d="M5.5 1.5H34.5V37.5H5.5z" />
  <path fill="#788b9c" d="M34,2v35H6V2H34 M35,1H5v37h30V1L35,1z" />
  <path fill="none" stroke="#c5d4de" d="M23 10.5L29 10.5M23 14.5L29 14.5M23 18.5L29 18.5M11 22.5L29 22.5M11 26.5L26 26.5M11 30.5L26 30.5" />
  <path fill="#ffeea3" d="M16 7.5A2.5 2.5 0 1 0 16 12.5A2.5 2.5 0 1 0 16 7.5Z" />
  <path fill="#ba9b48" d="M16,8c1.103,0,2,0.897,2,2s-0.897,2-2,2s-2-0.897-2-2S14.897,8,16,8 M16,7c-1.657,0-3,1.343-3,3 s1.343,3,3,3s3-1.343,3-3S17.657,7,16,7L16,7z" />
  <path fill="#c2e8ff" d="M11.528,18.5c0.25-2.247,2.16-4,4.472-4c2.312,0,4.223,1.753,4.472,4H11.528z" />
  <path fill="#7496c4" d="M16,15c1.86,0,3.428,1.277,3.873,3h-7.747C12.572,16.277,14.14,15,16,15 M16,14 c-2.761,0-5,2.239-5,5h10C21,16.239,18.761,14,16,14L16,14z" />
  <path fill="#dcd5f2" d="M27.5 24.5H39.5V39.5H27.5z" />
  <path fill="#8b75a1" d="M39,25v14H28V25H39 M40,24H27v16h13V24L40,24z" />
  <g>
    <path fill="none" stroke="#f9f7ff" d="M31.5 39L31.5 25" />
  </g>
  <path fill="none" stroke="#8b75a1" d="M27 34.5L40 34.5M27 29.5L40 29.5" />
</svg>