<?xml version="1.0" encoding="UTF-8"?>
<svg xmlns="http://www.w3.org/2000/svg" xmlns:xlink="http://www.w3.org/1999/xlink" width="32px" height="32px" viewBox="0 0 32 32" version="1.1">
<g id="surface1">
<path style=" stroke:none;fill-rule:nonzero;fill:rgb(18.039216%,18.039216%,18.039216%);fill-opacity:1;" d="M 24.628906 28.214844 L 7.371094 28.214844 C 6.128906 28.214844 5.003906 27.65625 4.363281 26.71875 C 3.828125 25.9375 3.714844 24.992188 4.050781 24.128906 C 5.769531 19.699219 10.570312 16.722656 16 16.722656 C 21.429688 16.722656 26.230469 19.699219 27.949219 24.128906 C 28.285156 24.992188 28.171875 25.9375 27.636719 26.71875 C 26.996094 27.65625 25.871094 28.214844 24.628906 28.214844 Z M 16 18.003906 C 13.554688 18.003906 11.230469 18.652344 9.269531 19.878906 C 7.371094 21.070312 5.976562 22.699219 5.242188 24.589844 C 5.058594 25.0625 5.121094 25.5625 5.417969 25.996094 C 5.820312 26.585938 6.550781 26.9375 7.371094 26.9375 L 24.628906 26.9375 C 25.449219 26.9375 26.179688 26.585938 26.582031 25.996094 C 26.878906 25.5625 26.941406 25.0625 26.757812 24.589844 C 26.023438 22.699219 24.628906 21.070312 22.730469 19.878906 C 20.769531 18.652344 18.445312 18.003906 16 18.003906 Z M 16 18.003906 "/>
<path style=" stroke:none;fill-rule:nonzero;fill:rgb(18.039216%,18.039216%,18.039216%);fill-opacity:1;" d="M 16 16.359375 C 12.53125 16.359375 9.710938 13.539062 9.710938 10.070312 C 9.710938 6.605469 12.53125 3.785156 16 3.785156 C 19.46875 3.785156 22.289062 6.605469 22.289062 10.070312 C 22.289062 13.539062 19.46875 16.359375 16 16.359375 Z M 16 5.0625 C 13.238281 5.0625 10.992188 7.308594 10.992188 10.070312 C 10.992188 12.832031 13.238281 15.078125 16 15.078125 C 18.761719 15.078125 21.007812 12.832031 21.007812 10.070312 C 21.007812 7.308594 18.761719 5.0625 16 5.0625 Z M 16 5.0625 "/>
</g>
</svg>
