<svg xmlns="http://www.w3.org/2000/svg" viewBox="0 0 50 50"><path d="M3 7L3 39L26 39L26 37L5 37L5 34.980469L17.808594 24.851563C18.84375 25.757813 20.757813 27.421875 21 27.632813C22.523438 28.960938 24.140625 29.296875 25.175781 29.296875C26.210938 29.296875 27.828125 28.960938 29.355469 27.632813C30.539063 26.601563 42.179688 16.453125 45 13.996094L45 31L47 33L47 7 Z M 5 9L45 9L45 11.34375C43.964844 12.246094 29.3125 25.019531 28.042969 26.125C26.921875 27.101563 25.78125 27.296875 25.175781 27.296875C24.570313 27.296875 23.433594 27.097656 22.3125 26.125C21.007813 24.988281 5.441406 11.421875 5 11.035156 Z M 5 13.6875C6.695313 15.167969 11.71875 19.546875 16.273438 23.515625L5 32.429688 Z M 38.988281 29.988281C38.582031 29.992188 38.21875 30.238281 38.0625 30.613281C37.910156 30.992188 38 31.421875 38.292969 31.707031L43.585938 37L30 37L30 39L43.585938 39L38.292969 44.292969C38.03125 44.542969 37.925781 44.917969 38.019531 45.265625C38.109375 45.617188 38.382813 45.890625 38.734375 45.980469C39.082031 46.074219 39.457031 45.96875 39.707031 45.707031L47.414063 38L39.707031 30.292969C39.519531 30.097656 39.261719 29.992188 38.988281 29.988281Z"/></svg>