<?xml version="1.0" encoding="UTF-8"?>
<svg xmlns="http://www.w3.org/2000/svg" xmlns:xlink="http://www.w3.org/1999/xlink" width="32px" height="32px" viewBox="0 0 32 32" version="1.1">
<g id="surface1">
<path style=" stroke:none;fill-rule:nonzero;fill:rgb(18.039216%,18.039216%,18.039216%);fill-opacity:1;" d="M 16 20.90625 C 13.292969 20.90625 11.09375 18.707031 11.09375 16 C 11.09375 13.292969 13.292969 11.09375 16 11.09375 C 18.707031 11.09375 20.90625 13.292969 20.90625 16 C 20.90625 18.707031 18.707031 20.90625 16 20.90625 Z M 16 12.371094 C 14 12.371094 12.371094 14 12.371094 16 C 12.371094 18 14 19.628906 16 19.628906 C 18 19.628906 19.628906 18 19.628906 16 C 19.628906 14 18 12.371094 16 12.371094 Z M 16 12.371094 "/>
<path style=" stroke:none;fill-rule:nonzero;fill:rgb(18.039216%,18.039216%,18.039216%);fill-opacity:1;" d="M 16.527344 27.957031 L 15.472656 27.957031 C 14.664062 27.957031 13.96875 27.351562 13.859375 26.546875 L 13.632812 24.902344 C 13.613281 24.765625 13.519531 24.65625 13.390625 24.617188 C 12.824219 24.445312 12.277344 24.21875 11.757812 23.9375 C 11.636719 23.875 11.488281 23.886719 11.378906 23.96875 L 10.054688 24.972656 C 9.410156 25.460938 8.492188 25.398438 7.917969 24.828125 L 7.171875 24.082031 C 6.601562 23.507812 6.535156 22.589844 7.027344 21.945312 L 8.03125 20.617188 C 8.113281 20.511719 8.125 20.363281 8.058594 20.242188 C 7.78125 19.722656 7.554688 19.171875 7.382812 18.609375 C 7.34375 18.480469 7.230469 18.386719 7.097656 18.367188 L 5.449219 18.140625 C 4.648438 18.03125 4.042969 17.335938 4.042969 16.527344 L 4.042969 15.472656 C 4.042969 14.660156 4.648438 13.96875 5.449219 13.855469 L 7.097656 13.628906 C 7.234375 13.613281 7.34375 13.515625 7.382812 13.386719 C 7.554688 12.824219 7.78125 12.273438 8.0625 11.753906 C 8.125 11.636719 8.113281 11.488281 8.03125 11.378906 L 7.027344 10.054688 C 6.535156 9.410156 6.601562 8.492188 7.171875 7.917969 L 7.917969 7.171875 C 8.492188 6.597656 9.410156 6.535156 10.054688 7.023438 L 11.382812 8.03125 C 11.488281 8.113281 11.636719 8.125 11.757812 8.058594 C 12.277344 7.78125 12.828125 7.554688 13.390625 7.382812 C 13.519531 7.34375 13.613281 7.230469 13.632812 7.097656 L 13.859375 5.449219 C 13.96875 4.648438 14.664062 4.042969 15.472656 4.042969 L 16.527344 4.042969 C 17.339844 4.042969 18.03125 4.648438 18.144531 5.449219 L 18.371094 7.097656 C 18.386719 7.230469 18.484375 7.34375 18.613281 7.382812 C 19.175781 7.554688 19.726562 7.78125 20.246094 8.058594 C 20.367188 8.125 20.511719 8.113281 20.621094 8.03125 L 21.945312 7.023438 C 22.59375 6.535156 23.511719 6.597656 24.082031 7.171875 L 24.828125 7.917969 C 25.402344 8.492188 25.464844 9.410156 24.976562 10.054688 L 23.96875 11.378906 C 23.886719 11.488281 23.878906 11.636719 23.941406 11.753906 C 24.21875 12.273438 24.449219 12.824219 24.617188 13.390625 C 24.65625 13.515625 24.769531 13.613281 24.902344 13.632812 L 26.550781 13.859375 C 27.351562 13.96875 27.957031 14.664062 27.957031 15.472656 L 27.957031 16.527344 C 27.957031 17.335938 27.351562 18.03125 26.550781 18.140625 L 24.902344 18.367188 C 24.765625 18.386719 24.65625 18.480469 24.617188 18.609375 C 24.445312 19.175781 24.21875 19.722656 23.9375 20.242188 C 23.875 20.363281 23.886719 20.511719 23.96875 20.621094 L 24.972656 21.945312 C 25.460938 22.589844 25.398438 23.507812 24.828125 24.082031 L 24.082031 24.828125 C 23.507812 25.398438 22.589844 25.464844 21.945312 24.972656 L 20.617188 23.96875 C 20.511719 23.886719 20.363281 23.875 20.242188 23.941406 C 19.722656 24.21875 19.171875 24.445312 18.609375 24.617188 C 18.480469 24.65625 18.386719 24.769531 18.367188 24.902344 L 18.140625 26.550781 C 18.03125 27.351562 17.335938 27.957031 16.527344 27.957031 Z M 11.59375 22.617188 C 11.855469 22.617188 12.121094 22.679688 12.359375 22.8125 C 12.804688 23.050781 13.277344 23.246094 13.761719 23.390625 C 14.367188 23.574219 14.8125 24.097656 14.902344 24.726562 L 15.128906 26.375 C 15.152344 26.546875 15.300781 26.675781 15.472656 26.675781 L 16.527344 26.675781 C 16.703125 26.675781 16.851562 26.546875 16.875 26.375 L 17.101562 24.726562 C 17.1875 24.097656 17.632812 23.574219 18.238281 23.390625 C 18.722656 23.242188 19.195312 23.050781 19.640625 22.808594 C 20.199219 22.511719 20.886719 22.566406 21.394531 22.949219 L 22.71875 23.953125 C 22.855469 24.058594 23.054688 24.042969 23.175781 23.921875 L 23.921875 23.175781 C 24.042969 23.054688 24.058594 22.855469 23.953125 22.71875 L 22.949219 21.390625 C 22.566406 20.886719 22.511719 20.199219 22.8125 19.640625 C 23.050781 19.195312 23.246094 18.722656 23.390625 18.238281 C 23.574219 17.632812 24.097656 17.1875 24.726562 17.097656 L 26.375 16.871094 C 26.546875 16.847656 26.675781 16.699219 26.675781 16.527344 L 26.675781 15.472656 C 26.675781 15.296875 26.546875 15.148438 26.375 15.125 L 24.726562 14.898438 C 24.097656 14.8125 23.574219 14.367188 23.390625 13.761719 C 23.246094 13.277344 23.050781 12.804688 22.808594 12.359375 C 22.511719 11.800781 22.566406 11.113281 22.949219 10.605469 L 23.953125 9.28125 C 24.058594 9.144531 24.042969 8.945312 23.921875 8.824219 L 23.175781 8.078125 C 23.054688 7.957031 22.855469 7.941406 22.71875 8.046875 L 21.390625 9.050781 C 20.886719 9.433594 20.199219 9.488281 19.640625 9.1875 C 19.195312 8.949219 18.722656 8.753906 18.238281 8.609375 C 17.632812 8.425781 17.1875 7.902344 17.097656 7.273438 L 16.871094 5.625 C 16.847656 5.453125 16.699219 5.324219 16.527344 5.324219 L 15.472656 5.324219 C 15.300781 5.324219 15.148438 5.453125 15.125 5.625 L 14.898438 7.273438 C 14.8125 7.902344 14.367188 8.425781 13.761719 8.609375 C 13.277344 8.753906 12.804688 8.949219 12.359375 9.1875 C 11.800781 9.488281 11.113281 9.433594 10.605469 9.050781 L 9.28125 8.046875 C 9.144531 7.941406 8.945312 7.957031 8.824219 8.078125 L 8.078125 8.824219 C 7.957031 8.945312 7.941406 9.144531 8.046875 9.28125 L 9.050781 10.605469 C 9.433594 11.113281 9.488281 11.800781 9.1875 12.359375 C 8.949219 12.804688 8.753906 13.277344 8.609375 13.761719 C 8.425781 14.367188 7.902344 14.8125 7.273438 14.898438 L 5.625 15.125 C 5.453125 15.148438 5.324219 15.300781 5.324219 15.472656 L 5.324219 16.527344 C 5.324219 16.699219 5.453125 16.847656 5.625 16.871094 L 7.273438 17.097656 C 7.902344 17.1875 8.425781 17.632812 8.609375 18.238281 C 8.753906 18.722656 8.949219 19.191406 9.1875 19.640625 C 9.488281 20.199219 9.433594 20.886719 9.050781 21.390625 L 8.046875 22.71875 C 7.941406 22.855469 7.957031 23.054688 8.078125 23.175781 L 8.824219 23.921875 C 8.945312 24.042969 9.144531 24.058594 9.28125 23.953125 L 10.605469 22.949219 C 10.894531 22.730469 11.242188 22.617188 11.59375 22.617188 Z M 11.59375 22.617188 "/>
</g>
</svg>
