<?xml version="1.0" encoding="utf-8"?>
<svg xmlns="http://www.w3.org/2000/svg" viewBox="0 0 48 48" width="40" height="40">
  <path d="M20.5 3C18.203405 3 16.305701 4.7666235 16.050781 7L12.5 7C10.032499 7 8 9.0324991 8 11.5L8 38.5C8 40.967501 10.032499 43 12.5 43L35.5 43C37.967501 43 40 40.967501 40 38.5L40 11.5C40 9.0324991 37.967501 7 35.5 7L31.949219 7C31.694299 4.7666235 29.796595 3 27.5 3L20.5 3 z M 20.5 6L27.5 6C28.346499 6 29 6.6535009 29 7.5C29 8.3464991 28.346499 9 27.5 9L20.5 9C19.653501 9 19 8.3464991 19 7.5C19 6.6535009 19.653501 6 20.5 6 z M 12.5 10L16.769531 10C17.581237 11.2019 18.954719 12 20.5 12L27.5 12C29.045281 12 30.418763 11.2019 31.230469 10L35.5 10C36.346499 10 37 10.653501 37 11.5L37 38.5C37 39.346499 36.346499 40 35.5 40L12.5 40C11.653501 40 11 39.346499 11 38.5L11 11.5C11 10.653501 11.653501 10 12.5 10 z M 24 16C19.029 16 15 20.029 15 25C15 29.971 19.029 34 24 34C28.971 34 33 29.971 33 25C33 20.029 28.971 16 24 16 z M 29 21C29.25575 21 29.511531 21.097469 29.707031 21.292969C30.098031 21.683969 30.098031 22.316031 29.707031 22.707031L23.207031 29.207031C23.012031 29.402031 22.756 29.5 22.5 29.5C22.244 29.5 21.987969 29.402031 21.792969 29.207031L18.292969 25.707031C17.901969 25.316031 17.901969 24.683969 18.292969 24.292969C18.683969 23.901969 19.316031 23.901969 19.707031 24.292969L22.5 27.085938L28.292969 21.292969C28.488469 21.097469 28.74425 21 29 21 z" fill="#84919D" />
</svg>