<?xml version="1.0" encoding="UTF-8"?>
<svg xmlns="http://www.w3.org/2000/svg" xmlns:xlink="http://www.w3.org/1999/xlink" width="32px" height="32px" viewBox="0 0 32 32" version="1.1">
<g id="surface1">
<path style=" stroke:none;fill-rule:nonzero;fill:rgb(18.039216%,18.039216%,18.039216%);fill-opacity:1;" d="M 24.648438 28.214844 L 7.351562 28.214844 C 6.996094 28.214844 6.710938 27.929688 6.710938 27.578125 L 6.710938 4.421875 C 6.710938 4.070312 6.996094 3.785156 7.351562 3.785156 L 24.648438 3.785156 C 25.003906 3.785156 25.289062 4.070312 25.289062 4.421875 L 25.289062 27.574219 C 25.289062 27.929688 25.003906 28.214844 24.648438 28.214844 Z M 7.992188 26.9375 L 24.007812 26.9375 L 24.007812 5.0625 L 7.992188 5.0625 Z M 7.992188 26.9375 "/>
<path style=" stroke:none;fill-rule:nonzero;fill:rgb(18.039216%,18.039216%,18.039216%);fill-opacity:1;" d="M 21.535156 10.242188 L 16.265625 10.242188 C 15.910156 10.242188 15.625 9.953125 15.625 9.601562 C 15.625 9.246094 15.910156 8.960938 16.265625 8.960938 L 21.535156 8.960938 C 21.890625 8.960938 22.175781 9.246094 22.175781 9.601562 C 22.175781 9.953125 21.890625 10.242188 21.535156 10.242188 Z M 21.535156 10.242188 "/>
<path style=" stroke:none;fill-rule:nonzero;fill:rgb(18.039216%,18.039216%,18.039216%);fill-opacity:1;" d="M 21.535156 16.640625 L 16.265625 16.640625 C 15.910156 16.640625 15.625 16.351562 15.625 16 C 15.625 15.648438 15.910156 15.359375 16.265625 15.359375 L 21.535156 15.359375 C 21.890625 15.359375 22.175781 15.648438 22.175781 16 C 22.175781 16.351562 21.890625 16.640625 21.535156 16.640625 Z M 21.535156 16.640625 "/>
<path style=" stroke:none;fill-rule:nonzero;fill:rgb(18.039216%,18.039216%,18.039216%);fill-opacity:1;" d="M 21.535156 23.039062 L 16.265625 23.039062 C 15.910156 23.039062 15.625 22.753906 15.625 22.398438 C 15.625 22.046875 15.910156 21.757812 16.265625 21.757812 L 21.535156 21.757812 C 21.890625 21.757812 22.175781 22.046875 22.175781 22.398438 C 22.175781 22.753906 21.890625 23.039062 21.535156 23.039062 Z M 21.535156 23.039062 "/>
<path style=" stroke:none;fill-rule:nonzero;fill:rgb(18.039216%,18.039216%,18.039216%);fill-opacity:1;" d="M 11.957031 11.332031 C 11.757812 11.332031 11.570312 11.242188 11.449219 11.085938 L 9.96875 9.171875 C 9.75 8.890625 9.800781 8.488281 10.082031 8.273438 C 10.363281 8.058594 10.761719 8.109375 10.980469 8.386719 L 11.878906 9.546875 L 13.871094 6.113281 C 14.046875 5.808594 14.4375 5.703125 14.746094 5.878906 C 15.050781 6.058594 15.15625 6.449219 14.976562 6.753906 L 12.507812 11.015625 C 12.402344 11.199219 12.210938 11.316406 12 11.332031 C 11.984375 11.332031 11.96875 11.332031 11.957031 11.332031 Z M 11.957031 11.332031 "/>
<path style=" stroke:none;fill-rule:nonzero;fill:rgb(18.039216%,18.039216%,18.039216%);fill-opacity:1;" d="M 11.957031 18.488281 C 11.757812 18.488281 11.570312 18.398438 11.449219 18.238281 L 9.96875 16.328125 C 9.75 16.046875 9.800781 15.644531 10.082031 15.429688 C 10.363281 15.210938 10.761719 15.261719 10.980469 15.542969 L 11.878906 16.703125 L 13.871094 13.269531 C 14.046875 12.960938 14.441406 12.859375 14.746094 13.035156 C 15.050781 13.210938 15.15625 13.605469 14.980469 13.910156 L 12.507812 18.167969 C 12.402344 18.351562 12.210938 18.472656 12 18.488281 C 11.984375 18.488281 11.96875 18.488281 11.957031 18.488281 Z M 11.957031 18.488281 "/>
<path style=" stroke:none;fill-rule:nonzero;fill:rgb(18.039216%,18.039216%,18.039216%);fill-opacity:1;" d="M 14.117188 24.851562 C 13.953125 24.851562 13.789062 24.789062 13.664062 24.664062 L 10.023438 21.019531 C 9.773438 20.769531 9.773438 20.367188 10.023438 20.117188 C 10.273438 19.867188 10.675781 19.867188 10.925781 20.117188 L 14.566406 23.757812 C 14.820312 24.007812 14.820312 24.414062 14.566406 24.664062 C 14.445312 24.789062 14.28125 24.851562 14.117188 24.851562 Z M 14.117188 24.851562 "/>
<path style=" stroke:none;fill-rule:nonzero;fill:rgb(18.039216%,18.039216%,18.039216%);fill-opacity:1;" d="M 10.472656 24.851562 C 10.308594 24.851562 10.148438 24.789062 10.023438 24.664062 C 9.773438 24.414062 9.773438 24.007812 10.023438 23.757812 L 13.664062 20.117188 C 13.914062 19.867188 14.320312 19.867188 14.566406 20.117188 C 14.820312 20.367188 14.820312 20.769531 14.566406 21.019531 L 10.925781 24.664062 C 10.800781 24.789062 10.636719 24.851562 10.472656 24.851562 Z M 10.472656 24.851562 "/>
</g>
</svg>
